:FULLY-SPECIFIED
:FORCE-ALL-JOINTS-BE-3DOF
:DEGREES
374
root 6.13474 16.1886 -15.8812 6.45978 -3.32071 -2.39384
lfemur -13.3521 8.21081 -3.79494
ltibia 51.7621 0 0
lfoot 1.1981 17.5798 0
ltoes 6.16114 0 0
rfemur -40.3984 -11.3275 16.8566
rtibia 49.7254 0 0
rfoot -3.60443 -4.14044 0
rtoes -6.5037 0 0
lowerback 1.7669 0.128063 0.889551
upperback 1.89021 0.214213 0.380091
thorax 1.0485 0.0986173 -0.219683
lowerneck -6.76789 -2.87947 2.65855
upperneck 1.82995 -4.13559 2.70735
head 2.03544 -1.96708 0.230703
lclavicle -2.43842e-14 1.45776e-14 0
lhumerus -46.0678 -25.6663 103.331
lradius 53.311 0 0
lwrist 16.3987 0 0
lhand -6.78411 6.16164 0
lfingers 7.12502 0 0
lthumb 19.0592 34.98 0
rclavicle -2.43842e-14 1.45776e-14 0
rhumerus -38.3664 9.47073 -88.4576
rradius 77.1817 0 0
rwrist 8.05335 0 0
rhand -41.8808 -31.7082 0
rfingers 7.12502 0 0
rthumb -14.7723 -781.023 0
375
root 6.07843 16.1824 -15.7616 6.39224 -3.83058 -2.47529
lfemur -13.6497 8.21395 -3.78662
ltibia 51.8225 0 0
lfoot 0.740528 17.3527 0
ltoes 5.89229 0 0
rfemur -40.3123 -11.032 16.5999
rtibia 49.6753 0 0
rfoot -3.42286 -4.0263 0
rtoes -6.66091 0 0
lowerback 1.86309 0.174883 0.932583
upperback 1.89335 0.278963 0.356838
thorax 1.00073 0.131093 -0.270611
lowerneck -6.76139 -2.74477 2.78903
upperneck 1.87596 -3.96351 2.60453
head 2.0503 -1.88171 0.18174
lclavicle -2.43975e-14 1.44768e-14 0
lhumerus -46.0202 -25.6074 103.186
lradius 53.2216 0 0
lwrist 16.3205 0 0
lhand -7.0629 6.02575 0
lfingers 7.12502 0 0
lthumb 18.7908 34.8658 0
rclavicle -2.43975e-14 1.44768e-14 0
rhumerus -38.5421 9.3509 -88.4559
rradius 77.0281 0 0
rwrist 8.13762 0 0
rhand -41.6708 -31.5207 0
rfingers 7.12502 0 0
rthumb -14.5699 -780.848 0
376
root 6.02212 16.1762 -15.642 6.3247 -4.34045 -2.55675
lfemur -13.9473 8.21708 -3.7783
ltibia 51.883 0 0
lfoot 0.282956 17.1257 0
ltoes 5.62344 0 0
rfemur -40.2261 -10.7364 16.3433
rtibia 49.6252 0 0
rfoot -3.2413 -3.91216 0
rtoes -6.81813 0 0
lowerback 1.95927 0.221704 0.975615
upperback 1.8965 0.343713 0.333585
thorax 0.952968 0.163569 -0.32154
lowerneck -6.75488 -2.61008 2.91951
upperneck 1.92197 -3.79144 2.5017
head 2.06517 -1.79634 0.132776
lclavicle -2.44107e-14 1.43761e-14 0
lhumerus -45.9726 -25.5486 103.041
lradius 53.1323 0 0
lwrist 16.2423 0 0
lhand -7.3417 5.88986 0
lfingers 7.12502 0 0
lthumb 18.5225 34.7517 0
rclavicle -2.44107e-14 1.43761e-14 0
rhumerus -38.7177 9.23106 -88.4543
rradius 76.8745 0 0
rwrist 8.2219 0 0
rhand -41.4608 -31.3332 0
rfingers 7.12502 0 0
rthumb -14.3674 -780.673 0
377
root 5.96581 16.17 -15.5225 6.25716 -4.85033 -2.6382
lfemur -14.2449 8.22022 -3.76998
ltibia 51.9435 0 0
lfoot -0.174616 16.8986 0
ltoes 5.35459 0 0
rfemur -40.1399 -10.4409 16.0866
rtibia 49.5751 0 0
rfoot -3.05974 -3.79802 0
rtoes -6.97534 0 0
lowerback 2.05546 0.268524 1.01865
upperback 1.89964 0.408463 0.310332
thorax 0.905202 0.196045 -0.372468
lowerneck -6.74838 -2.47538 3.04998
upperneck 1.96797 -3.61936 2.39888
head 2.08004 -1.71097 0.0838129
lclavicle -2.4424e-14 1.42754e-14 0
lhumerus -45.925 -25.4897 102.897
lradius 53.043 0 0
lwrist 16.1641 0 0
lhand -7.6205 5.75398 0
lfingers 7.12502 0 0
lthumb 18.2541 34.6375 0
rclavicle -2.4424e-14 1.42754e-14 0
rhumerus -38.8934 9.11123 -88.4526
rradius 76.7209 0 0
rwrist 8.30617 0 0
rhand -41.2508 -31.1457 0
rfingers 7.12502 0 0
rthumb -14.165 -780.498 0
378
root 5.90949 16.1638 -15.4029 6.18962 -5.3602 -2.71966
lfemur -14.5425 8.22335 -3.76166
ltibia 52.004 0 0
lfoot -0.632188 16.6715 0
ltoes 5.08573 0 0
rfemur -40.0538 -10.1454 15.83
rtibia 49.525 0 0
rfoot -2.87817 -3.68387 0
rtoes -7.13256 0 0
lowerback 2.15165 0.315344 1.06168
upperback 1.90279 0.473212 0.28708
thorax 0.857436 0.228521 -0.423396
lowerneck -6.74188 -2.34068 3.18046
upperneck 2.01398 -3.44729 2.29606
head 2.0949 -1.62559 0.0348495
lclavicle -2.44372e-14 1.41747e-14 0
lhumerus -45.8774 -25.4309 102.752
lradius 52.9536 0 0
lwrist 16.0859 0 0
lhand -7.89929 5.61809 0
lfingers 7.12502 0 0
lthumb 17.9857 34.5233 0
rclavicle -2.44372e-14 1.41747e-14 0
rhumerus -39.069 8.9914 -88.4509
rradius 76.5673 0 0
rwrist 8.39045 0 0
rhand -41.0408 -30.9582 0
rfingers 7.12502 0 0
rthumb -13.9625 -780.322 0
379
root 5.85318 16.1576 -15.2833 6.12208 -5.87008 -2.80112
lfemur -14.8402 8.22649 -3.75334
ltibia 52.0644 0 0
lfoot -1.08976 16.4444 0
ltoes 4.81688 0 0
rfemur -39.9676 -9.84984 15.5734
rtibia 49.4749 0 0
rfoot -2.69661 -3.56973 0
rtoes -7.28977 0 0
lowerback 2.24783 0.362164 1.10471
upperback 1.90594 0.537962 0.263827
thorax 0.80967 0.260997 -0.474324
lowerneck -6.73538 -2.20598 3.31094
upperneck 2.05999 -3.27522 2.19323
head 2.10977 -1.54022 -0.014114
lclavicle -2.44505e-14 1.4074e-14 0
lhumerus -45.8297 -25.372 102.607
lradius 52.8643 0 0
lwrist 16.0078 0 0
lhand -8.17809 5.4822 0
lfingers 7.12502 0 0
lthumb 17.7174 34.4092 0
rclavicle -2.44505e-14 1.4074e-14 0
rhumerus -39.2447 8.87157 -88.4493
rradius 76.4137 0 0
rwrist 8.47472 0 0
rhand -40.8307 -30.7707 0
rfingers 7.12502 0 0
rthumb -13.7601 -780.147 0
380
root 5.79687 16.1514 -15.1637 6.05454 -6.37995 -2.88257
lfemur -15.1378 8.22963 -3.74502
ltibia 52.1249 0 0
lfoot -1.54733 16.2173 0
ltoes 4.54803 0 0
rfemur -39.8815 -9.55431 15.3167
rtibia 49.4247 0 0
rfoot -2.51504 -3.45559 0
rtoes -7.44698 0 0
lowerback 2.34402 0.408984 1.14774
upperback 1.90908 0.602712 0.240574
thorax 0.761904 0.293472 -0.525252
lowerneck -6.72887 -2.07128 3.44142
upperneck 2.10599 -3.10314 2.09041
head 2.12464 -1.45485 -0.0630775
lclavicle -2.44638e-14 1.39732e-14 0
lhumerus -45.7821 -25.3131 102.462
lradius 52.775 0 0
lwrist 15.9296 0 0
lhand -8.45688 5.34631 0
lfingers 7.12502 0 0
lthumb 17.449 34.295 0
rclavicle -2.44638e-14 1.39732e-14 0
rhumerus -39.4203 8.75174 -88.4476
rradius 76.2601 0 0
rwrist 8.559 0 0
rhand -40.6207 -30.5832 0
rfingers 7.12502 0 0
rthumb -13.5577 -779.972 0
381
root 5.74056 16.1452 -15.0441 5.987 -6.88982 -2.96403
lfemur -15.4354 8.23276 -3.7367
ltibia 52.1854 0 0
lfoot -2.0049 15.9903 0
ltoes 4.27918 0 0
rfemur -39.7953 -9.25878 15.0601
rtibia 49.3746 0 0
rfoot -2.33348 -3.34145 0
rtoes -7.6042 0 0
lowerback 2.4402 0.455804 1.19078
upperback 1.91223 0.667461 0.217321
thorax 0.714138 0.325948 -0.57618
lowerneck -6.72237 -1.93658 3.57189
upperneck 2.152 -2.93107 1.98759
head 2.1395 -1.36947 -0.112041
lclavicle -2.4477e-14 1.38725e-14 0
lhumerus -45.7345 -25.2543 102.317
lradius 52.6857 0 0
lwrist 15.8514 0 0
lhand -8.73568 5.21042 0
lfingers 7.12502 0 0
lthumb 17.1806 34.1809 0
rclavicle -2.4477e-14 1.38725e-14 0
rhumerus -39.596 8.63191 -88.446
rradius 76.1065 0 0
rwrist 8.64327 0 0
rhand -40.4107 -30.3957 0
rfingers 7.12502 0 0
rthumb -13.3552 -779.797 0
382
root 5.68425 16.139 -14.9245 5.91946 -7.3997 -3.04548
lfemur -15.733 8.2359 -3.72838
ltibia 52.2459 0 0
lfoot -2.46248 15.7632 0
ltoes 4.01033 0 0
rfemur -39.7091 -8.96325 14.8034
rtibia 49.3245 0 0
rfoot -2.15192 -3.22731 0
rtoes -7.76141 0 0
lowerback 2.53639 0.502624 1.23381
upperback 1.91537 0.732211 0.194068
thorax 0.666372 0.358424 -0.627108
lowerneck -6.71587 -1.80188 3.70237
upperneck 2.198 -2.75899 1.88476
head 2.15437 -1.2841 -0.161004
lclavicle -2.44903e-14 1.37718e-14 0
lhumerus -45.6869 -25.1954 102.172
lradius 52.5963 0 0
lwrist 15.7732 0 0
lhand -9.01447 5.07453 0
lfingers 7.12502 0 0
lthumb 16.9123 34.0667 0
rclavicle -2.44903e-14 1.37718e-14 0
rhumerus -39.7716 8.51208 -88.4443
rradius 75.9529 0 0
rwrist 8.72755 0 0
rhand -40.2007 -30.2082 0
rfingers 7.12502 0 0
rthumb -13.1528 -779.622 0
